# xmcd
#
# Track frame offsets:
#	150
#	13756
#	33112
#	49337
#	65896
#
# Disc length: 1133 seconds
#
# Revision: 0
# Processed by: cddbd v1.5.1PL2 Copyright (c) Steve Scherf et al.
# Submitted via: audiograbber 1.83.01
#
DISCID=40046b05
DTITLE=яоука стауяоу - миысе ле
DYEAR=2003
DGENRE=каийа
TTITLE0=сто йаты йаты еилаи цумаийа
TTITLE1=миысе ле
TTITLE2=бягйа то йкеиди
TTITLE3=лгм амгсувеис
TTITLE4=тыяа ти хес
EXTD=
EXTT0=
EXTT1=
EXTT2=
EXTT3=
EXTT4=
PLAYORDER=
